<?xml version="1.0" standalone="no"?>
<!DOCTYPE svg PUBLIC "-//W3C//DTD SVG 20010904//EN"
 "http://www.w3.org/TR/2001/REC-SVG-20010904/DTD/svg10.dtd">
<svg version="1.0" xmlns="http://www.w3.org/2000/svg"
 width="1190.000000pt" height="417.000000pt" viewBox="0 0 1190.000000 417.000000"
 preserveAspectRatio="xMidYMid meet">
<metadata>
Created by potrace 1.15, written by Peter Selinger 2001-2017
</metadata>
<g transform="translate(0.000000,417.000000) scale(0.100000,-0.100000)"
fill="#4eb2f5" stroke="none">
<path d="M0 2110 l0 -2060 1158 0 c1182 0 1220 1 1475 42 118 18 137 24 137
40 0 10 4 18 10 18 5 0 7 7 4 15 -3 8 8 61 26 117 17 57 36 119 42 138 6 19
17 43 24 54 7 10 10 25 7 34 -4 9 -2 13 4 9 7 -4 13 7 17 28 4 19 11 35 17 35
6 0 8 4 5 8 -12 21 59 204 96 247 10 11 18 25 20 30 1 6 12 21 24 34 13 14 21
28 18 33 -3 4 0 8 5 8 6 0 11 6 11 14 0 8 13 27 30 43 17 15 30 33 30 39 0 6
13 30 30 52 17 23 30 46 30 52 0 6 11 20 25 32 14 12 25 30 25 40 0 10 4 18
10 18 5 0 7 7 3 15 -6 17 22 44 47 45 8 0 27 17 43 38 15 20 48 62 73 92 52
64 71 99 80 146 3 19 9 34 13 34 3 0 7 66 9 147 2 117 -1 151 -13 170 -9 13
-13 23 -10 23 19 0 -40 77 -111 146 -46 45 -84 87 -84 94 0 6 -5 8 -10 5 -6
-3 -10 -2 -10 3 0 5 -25 26 -55 46 -68 47 -127 111 -150 162 -10 21 -28 53
-40 69 -31 43 -57 94 -51 104 3 4 -2 20 -9 35 -8 16 -13 31 -10 35 2 4 -2 19
-9 32 -7 14 -13 47 -14 74 -2 87 -12 158 -32 235 -17 65 -23 142 -19 215 1 11
6 26 12 33 5 6 6 12 1 12 -4 0 2 10 13 23 12 12 23 31 25 42 2 11 11 19 21 19
13 -1 17 7 17 37 0 29 5 41 18 45 9 3 25 10 34 15 10 5 23 9 29 9 12 0 44 30
44 41 0 16 15 21 28 11 10 -9 17 -7 28 6 9 10 14 23 12 29 -2 6 6 13 17 16 17
4 20 10 15 28 -5 14 -4 19 4 15 7 -5 11 1 11 14 0 43 58 63 90 31 13 -13 15
-12 18 5 5 27 53 67 65 55 7 -7 15 -4 24 7 11 12 16 14 19 5 3 -7 15 -13 26
-13 11 0 18 5 15 13 -2 6 4 22 15 34 l20 21 -79 56 c-176 125 -478 254 -718
306 -260 56 -203 54 -1522 57 l-1223 4 0 -2061z m2017 1109 c462 -51 684 -267
753 -734 30 -199 27 -612 -5 -815 -61 -377 -241 -570 -610 -651 -88 -19 -139
-22 -417 -26 l-318 -5 0 1121 0 1121 250 0 c138 0 294 -5 347 -11z"/>
<path d="M4340 3755 l0 -415 37 -54 c37 -56 39 -63 47 -152 5 -66 29 -108 72
-123 19 -7 34 -16 34 -21 0 -5 8 -11 18 -14 20 -7 120 -105 162 -159 16 -21
23 -97 9 -97 -5 0 -9 -6 -9 -14 0 -8 -13 -20 -30 -28 -16 -7 -30 -16 -30 -20
0 -5 -7 -8 -16 -8 -8 0 -12 -5 -9 -10 4 -6 12 -7 18 -3 7 4 18 8 25 9 8 2 22
10 32 19 10 9 24 14 30 10 6 -4 23 1 38 11 15 10 33 19 39 20 7 1 20 9 29 18
8 9 20 16 25 16 17 0 24 3 61 26 21 13 41 24 46 24 4 0 18 8 32 17 13 9 32 18
41 18 9 1 25 9 34 18 9 10 21 15 26 11 5 -3 21 4 35 15 15 12 32 21 38 21 13
0 51 67 49 88 0 6 3 12 8 12 5 0 6 17 3 38 -10 62 -12 102 -7 123 6 21 55 52
85 55 10 1 24 7 32 13 10 8 16 9 21 1 10 -16 21 -12 35 15 11 21 19 25 42 20
18 -4 28 -2 28 5 0 7 8 9 19 5 13 -4 24 1 35 17 18 25 63 32 86 13 28 -22 50
-26 50 -7 1 22 20 46 45 56 29 11 82 -23 104 -66 13 -27 21 -34 29 -26 6 6 20
12 31 13 11 1 25 6 33 12 7 6 45 20 83 32 39 12 79 25 90 31 41 19 116 40 143
40 42 -1 68 -28 79 -84 2 -11 8 -26 15 -33 6 -7 12 -25 14 -40 1 -15 8 -37 15
-50 l12 -23 899 0 898 0 0 510 0 510 -1905 0 -1905 0 0 -415z"/>
<path d="M8260 2110 l0 -2060 1820 0 1820 0 0 510 0 510 -1105 0 -1105 0 0
1550 0 1550 -715 0 -715 0 0 -2060z"/>
<path d="M5213 2549 c-8 -8 -55 -20 -85 -22 -10 -1 -18 -5 -18 -9 0 -4 -15 -7
-33 -6 -18 1 -42 -4 -53 -10 -12 -6 -24 -9 -27 -6 -3 3 -12 2 -19 -2 -7 -5
-22 -10 -33 -11 -27 -2 -76 -13 -95 -20 -8 -4 -20 -5 -27 -4 -20 3 -48 -32
-45 -57 2 -12 -2 -39 -9 -60 -7 -20 -14 -40 -15 -44 -1 -5 -3 -9 -4 -10 -10
-10 -6 -58 6 -85 18 -39 28 -153 13 -153 -6 0 -8 -4 -4 -10 12 -19 -45 -89
-73 -90 -7 0 -22 -5 -33 -11 -11 -5 -52 -12 -92 -15 -93 -5 -107 -7 -101 -13
2 -3 -9 -10 -26 -17 -41 -17 -61 -65 -48 -112 5 -19 8 -61 6 -93 -3 -61 0 -67
20 -47 6 6 29 12 51 12 23 1 50 9 61 19 28 24 81 31 195 27 17 -1 39 1 50 3
11 2 25 1 30 -2 18 -13 90 -32 110 -30 30 4 105 -12 105 -23 0 -5 6 -8 13 -6
6 1 34 -12 60 -31 36 -25 61 -33 97 -35 39 -2 55 -8 75 -30 14 -15 29 -25 34
-22 4 3 14 -6 22 -20 9 -17 19 -24 32 -20 10 2 27 -4 38 -15 21 -21 39 -25 39
-9 0 6 14 10 30 10 17 0 30 4 30 10 0 5 10 10 23 9 12 0 36 3 52 6 60 11 101
16 133 15 64 -1 72 6 72 66 l0 54 103 0 c56 0 108 4 116 9 16 10 35 175 27
241 -6 54 -62 229 -80 250 -16 18 -37 75 -42 113 -2 15 -9 38 -16 50 -7 12
-13 30 -14 40 -3 35 -27 67 -51 67 -13 0 -23 -5 -23 -11 0 -5 -5 -7 -10 -4 -6
4 -22 0 -35 -9 -38 -25 -101 -24 -128 2 -13 12 -29 22 -36 22 -27 0 -68 40
-80 79 -11 37 -13 40 -32 28 -17 -10 -22 -9 -34 7 -11 15 -21 17 -49 12 -24
-5 -36 -3 -36 4 0 6 -4 9 -9 6 -5 -3 -14 1 -21 9 -14 16 -92 19 -107 4z"/>
<path d="M6255 2463 c25 -49 57 -115 72 -148 14 -33 38 -87 54 -121 16 -33 29
-67 29 -74 0 -7 10 -29 22 -49 13 -20 22 -38 21 -41 -4 -11 10 -50 18 -50 5 0
9 -10 9 -22 0 -13 7 -36 15 -52 9 -16 17 -37 18 -45 2 -9 11 -30 20 -47 9 -17
19 -42 21 -55 3 -13 13 -48 23 -76 l17 -53 688 0 688 0 0 460 0 460 -880 0
-880 0 45 -87z"/>
<path d="M5270 647 c1 -56 -1 -145 -4 -197 -3 -52 -7 -175 -10 -272 l-6 -178
260 0 260 0 0 368 0 368 -42 -4 c-95 -8 -311 -9 -351 0 -23 5 -57 11 -75 13
l-33 4 1 -102z"/>
</g>
</svg>
